<svg id="visual" viewBox="0 0 960 300" width="960" height="300" xmlns="http://www.w3.org/2000/svg" xmlns:xlink="http://www.w3.org/1999/xlink" version="1.1"><rect x="0" y="0" width="960" height="300" fill="#000"></rect><path d="M0 162L16 159.5C32 157 64 152 96 144.5C128 137 160 127 192 127.7C224 128.3 256 139.7 288 146C320 152.3 352 153.7 384 150.5C416 147.3 448 139.7 480 132.3C512 125 544 118 576 115.8C608 113.7 640 116.3 672 119.2C704 122 736 125 768 123.7C800 122.3 832 116.7 864 118.3C896 120 928 129 944 133.5L960 138L960 0L944 0C928 0 896 0 864 0C832 0 800 0 768 0C736 0 704 0 672 0C640 0 608 0 576 0C544 0 512 0 480 0C448 0 416 0 384 0C352 0 320 0 288 0C256 0 224 0 192 0C160 0 128 0 96 0C64 0 32 0 16 0L0 0Z" fill="#e15a90"></path><path d="M0 120L16 122.5C32 125 64 130 96 127.3C128 124.7 160 114.3 192 109.8C224 105.3 256 106.7 288 103.8C320 101 352 94 384 91C416 88 448 89 480 88.7C512 88.3 544 86.7 576 93.7C608 100.7 640 116.3 672 121.3C704 126.3 736 120.7 768 116.7C800 112.7 832 110.3 864 113.5C896 116.7 928 125.3 944 129.7L960 134L960 0L944 0C928 0 896 0 864 0C832 0 800 0 768 0C736 0 704 0 672 0C640 0 608 0 576 0C544 0 512 0 480 0C448 0 416 0 384 0C352 0 320 0 288 0C256 0 224 0 192 0C160 0 128 0 96 0C64 0 32 0 16 0L0 0Z" fill="#d74fa9"></path><path d="M0 83L16 82.2C32 81.3 64 79.7 96 83.5C128 87.3 160 96.7 192 97.7C224 98.7 256 91.3 288 84.3C320 77.3 352 70.7 384 71.2C416 71.7 448 79.3 480 83.3C512 87.3 544 87.7 576 88.8C608 90 640 92 672 89.8C704 87.7 736 81.3 768 83C800 84.7 832 94.3 864 99C896 103.7 928 103.3 944 103.2L960 103L960 0L944 0C928 0 896 0 864 0C832 0 800 0 768 0C736 0 704 0 672 0C640 0 608 0 576 0C544 0 512 0 480 0C448 0 416 0 384 0C352 0 320 0 288 0C256 0 224 0 192 0C160 0 128 0 96 0C64 0 32 0 16 0L0 0Z" fill="#bf4fc6"></path><path d="M0 77L16 72C32 67 64 57 96 53.3C128 49.7 160 52.3 192 52.7C224 53 256 51 288 54.7C320 58.3 352 67.7 384 65.3C416 63 448 49 480 44.2C512 39.3 544 43.7 576 43.3C608 43 640 38 672 36.2C704 34.3 736 35.7 768 41.5C800 47.3 832 57.7 864 62.3C896 67 928 66 944 65.5L960 65L960 0L944 0C928 0 896 0 864 0C832 0 800 0 768 0C736 0 704 0 672 0C640 0 608 0 576 0C544 0 512 0 480 0C448 0 416 0 384 0C352 0 320 0 288 0C256 0 224 0 192 0C160 0 128 0 96 0C64 0 32 0 16 0L0 0Z" fill="#9158e4"></path><path d="M0 12L16 14C32 16 64 20 96 26.3C128 32.7 160 41.3 192 45.7C224 50 256 50 288 44.3C320 38.7 352 27.3 384 26.3C416 25.3 448 34.7 480 39.7C512 44.7 544 45.3 576 43.2C608 41 640 36 672 30.7C704 25.3 736 19.7 768 20.5C800 21.3 832 28.7 864 34.3C896 40 928 44 944 46L960 48L960 0L944 0C928 0 896 0 864 0C832 0 800 0 768 0C736 0 704 0 672 0C640 0 608 0 576 0C544 0 512 0 480 0C448 0 416 0 384 0C352 0 320 0 288 0C256 0 224 0 192 0C160 0 128 0 96 0C64 0 32 0 16 0L0 0Z" fill="#0066ff"></path></svg>