<svg id="visual" viewBox="0 0 960 300" width="960" height="300" xmlns="http://www.w3.org/2000/svg" xmlns:xlink="http://www.w3.org/1999/xlink" version="1.1"><rect x="0" y="0" width="960" height="300" fill="#000"></rect><path d="M0 169L16 162.8C32 156.7 64 144.3 96 142.2C128 140 160 148 192 152.8C224 157.7 256 159.3 288 162.3C320 165.3 352 169.7 384 170.5C416 171.3 448 168.7 480 169.3C512 170 544 174 576 177.8C608 181.7 640 185.3 672 184.8C704 184.3 736 179.7 768 179.2C800 178.7 832 182.3 864 178.5C896 174.7 928 163.3 944 157.7L960 152L960 301L944 301C928 301 896 301 864 301C832 301 800 301 768 301C736 301 704 301 672 301C640 301 608 301 576 301C544 301 512 301 480 301C448 301 416 301 384 301C352 301 320 301 288 301C256 301 224 301 192 301C160 301 128 301 96 301C64 301 32 301 16 301L0 301Z" fill="#e15a90"></path><path d="M0 212L16 203.5C32 195 64 178 96 170.5C128 163 160 165 192 169.3C224 173.7 256 180.3 288 179.5C320 178.7 352 170.3 384 174.8C416 179.3 448 196.7 480 197.5C512 198.3 544 182.7 576 178C608 173.3 640 179.7 672 185.5C704 191.3 736 196.7 768 194.7C800 192.7 832 183.3 864 184.7C896 186 928 198 944 204L960 210L960 301L944 301C928 301 896 301 864 301C832 301 800 301 768 301C736 301 704 301 672 301C640 301 608 301 576 301C544 301 512 301 480 301C448 301 416 301 384 301C352 301 320 301 288 301C256 301 224 301 192 301C160 301 128 301 96 301C64 301 32 301 16 301L0 301Z" fill="#d74fa9"></path><path d="M0 193L16 197.3C32 201.7 64 210.3 96 210C128 209.7 160 200.3 192 202.8C224 205.3 256 219.7 288 226.3C320 233 352 232 384 232.3C416 232.7 448 234.3 480 230C512 225.7 544 215.3 576 215.2C608 215 640 225 672 228.7C704 232.3 736 229.7 768 222.8C800 216 832 205 864 206.2C896 207.3 928 220.7 944 227.3L960 234L960 301L944 301C928 301 896 301 864 301C832 301 800 301 768 301C736 301 704 301 672 301C640 301 608 301 576 301C544 301 512 301 480 301C448 301 416 301 384 301C352 301 320 301 288 301C256 301 224 301 192 301C160 301 128 301 96 301C64 301 32 301 16 301L0 301Z" fill="#bf4fc6"></path><path d="M0 265L16 260.8C32 256.7 64 248.3 96 244.3C128 240.3 160 240.7 192 238.7C224 236.7 256 232.3 288 230.2C320 228 352 228 384 229.7C416 231.3 448 234.7 480 238.8C512 243 544 248 576 249C608 250 640 247 672 244.7C704 242.3 736 240.7 768 241C800 241.3 832 243.7 864 245.2C896 246.7 928 247.3 944 247.7L960 248L960 301L944 301C928 301 896 301 864 301C832 301 800 301 768 301C736 301 704 301 672 301C640 301 608 301 576 301C544 301 512 301 480 301C448 301 416 301 384 301C352 301 320 301 288 301C256 301 224 301 192 301C160 301 128 301 96 301C64 301 32 301 16 301L0 301Z" fill="#9158e4"></path><path d="M0 277L16 275C32 273 64 269 96 268.5C128 268 160 271 192 272.7C224 274.3 256 274.7 288 275.7C320 276.7 352 278.3 384 280.2C416 282 448 284 480 285.3C512 286.7 544 287.3 576 284.7C608 282 640 276 672 275.8C704 275.7 736 281.3 768 283.7C800 286 832 285 864 284.3C896 283.7 928 283.3 944 283.2L960 283L960 301L944 301C928 301 896 301 864 301C832 301 800 301 768 301C736 301 704 301 672 301C640 301 608 301 576 301C544 301 512 301 480 301C448 301 416 301 384 301C352 301 320 301 288 301C256 301 224 301 192 301C160 301 128 301 96 301C64 301 32 301 16 301L0 301Z" fill="#0066ff"></path></svg>